<svg xmlns="http://www.w3.org/2000/svg" xmlns:xlink="http://www.w3.org/1999/xlink" width="500" zoomAndPan="magnify" viewBox="0 0 375 374.999991" height="500" preserveAspectRatio="xMidYMid meet" version="1.0"><defs><g/></defs><path stroke-linecap="butt" transform="matrix(0.639202, 0, 0, 0.639202, 35.58198, -7.063825)" fill="none" stroke-linejoin="miter" d="M 121.770613 299.722828 C 124.483958 300.602832 129.904538 301.189501 135.325117 301.189501 C 160.234115 301.189501 181.843098 287.708331 191.14425 266.099348 C 195.324268 256.211527 196.78483 245.077034 196.78483 224.708611 L 196.78483 154.454971 C 196.78483 143.393811 195.030933 131.965983 192.317588 124.204838 C 182.136433 94.168596 153.640197 73.800173 121.183944 73.800173 C 78.62598 73.800173 44.703054 107.643655 44.703054 149.40106 C 44.703054 191.6718 78.259312 225.588615 120.597275 225.588615 C 140.085693 225.588615 159.647445 217.534135 173.122504 203.979632 C 179.716422 197.385714 182.136433 193.798476 188.143681 182.663983 L 188.143681 224.708611 C 188.143681 246.323706 186.897009 265.219344 171.00194 279.580518 C 161.401342 288.588335 149.09351 293.135021 135.031782 293.135021 C 131.077876 293.135021 125.437296 292.548352 123.31062 291.888349 Z M 120.890609 217.821359 C 82.506552 217.821359 53.716982 187.204558 53.716982 149.694394 C 53.716982 111.603672 82.799887 81.860764 120.597275 81.860764 C 157.814104 81.860764 188.143681 112.190341 188.143681 149.107725 C 188.143681 187.204558 158.107439 217.821359 120.890609 217.821359 Z M 120.890609 217.821359 " stroke="#5ce1e6" stroke-width="41.258938" stroke-opacity="1" stroke-miterlimit="4"/><g fill="#5271ff" fill-opacity="1"><g transform="translate(56.66565, 134.838964)"><g><path d="M 56.765625 49.671875 C 58.5 50.25 61.953125 50.640625 65.40625 50.640625 C 81.328125 50.640625 95.125 42 101.078125 28.1875 C 103.765625 21.859375 104.71875 14.765625 104.71875 1.71875 L 104.71875 -43.15625 C 104.71875 -50.25 103.5625 -57.53125 101.84375 -62.53125 C 95.328125 -81.703125 77.109375 -94.75 56.390625 -94.75 C 29.15625 -94.75 7.484375 -73.078125 7.484375 -46.421875 C 7.484375 -19.375 28.96875 2.296875 56 2.296875 C 68.46875 2.296875 80.9375 -2.875 89.5625 -11.5 C 93.78125 -15.734375 95.328125 -18.03125 99.15625 -25.125 L 99.15625 1.71875 C 99.15625 15.53125 98.390625 27.625 88.21875 36.828125 C 82.09375 42.578125 74.21875 45.453125 65.203125 45.453125 C 62.71875 45.453125 59.078125 45.078125 57.734375 44.6875 Z M 56.203125 -2.6875 C 31.640625 -2.6875 13.234375 -22.25 13.234375 -46.21875 C 13.234375 -70.578125 31.84375 -89.5625 56 -89.5625 C 79.78125 -89.5625 99.15625 -70.203125 99.15625 -46.609375 C 99.15625 -22.25 79.984375 -2.6875 56.203125 -2.6875 Z M 56.203125 -2.6875 "/></g></g></g><path stroke-linecap="butt" transform="matrix(0.639202, 0, 0, 0.639202, 92.80628, 124.09552)" fill="none" stroke-linejoin="miter" d="M 86.830666 76.441454 L 86.830666 222.002646 L 166.678793 222.002646 L 166.678793 213.575387 L 95.545149 213.575387 L 95.545149 151.82234 L 166.678793 151.82234 L 166.678793 143.39508 L 95.545149 143.39508 L 95.545149 84.862602 L 166.678793 84.862602 L 166.678793 76.441454 Z M 86.830666 76.441454 " stroke="#5ce1e6" stroke-width="41.258938" stroke-opacity="1" stroke-miterlimit="4"/><g fill="#5271ff" fill-opacity="1"><g transform="translate(131.637786, 265.998308)"><g><path d="M 16.6875 -93.015625 L 16.6875 0 L 67.703125 0 L 67.703125 -5.375 L 22.25 -5.375 L 22.25 -44.875 L 67.703125 -44.875 L 67.703125 -50.25 L 22.25 -50.25 L 22.25 -87.65625 L 67.703125 -87.65625 L 67.703125 -93.015625 Z M 16.6875 -93.015625 "/></g></g></g><path stroke-linecap="butt" transform="matrix(0.639202, 0, 0, 0.639202, 171.919652, 188.024124)" fill="none" stroke-linejoin="miter" d="M 57.118173 76.437039 L 57.118173 84.864298 L 122.825127 84.864298 L 122.825127 221.998231 L 131.54572 221.998231 L 131.54572 84.864298 L 196.378782 84.864298 L 196.378782 76.437039 Z M 57.118173 76.437039 " stroke="#5ce1e6" stroke-width="41.258938" stroke-opacity="1" stroke-miterlimit="4"/><g fill="#5271ff" fill-opacity="1"><g transform="translate(203.839789, 329.926912)"><g><path d="M 4.609375 -93.015625 L 4.609375 -87.65625 L 46.609375 -87.65625 L 46.609375 0 L 52.171875 0 L 52.171875 -87.65625 L 93.59375 -87.65625 L 93.59375 -93.015625 Z M 4.609375 -93.015625 "/></g></g></g><g fill="#5271ff" fill-opacity="1"><g transform="translate(298.211938, 329.926912)"><g/></g></g></svg>